<svg xmlns="http://www.w3.org/2000/svg" width="24.52" height="13.455" viewBox="0 0 24.52 13.455">
  <path id="Icon_awesome-arrow-right" data-name="Icon awesome-arrow-right" d="M5.869,3.548l.684-.684a.736.736,0,0,1,1.044,0l5.989,5.986a.736.736,0,0,1,0,1.044L7.6,15.885a.736.736,0,0,1-1.044,0L5.869,15.2a.74.74,0,0,1,.012-1.057l3.713-3.537H-9.976a.738.738,0,0,1-.739-.739V8.882a.738.738,0,0,1,.739-.739H9.594L5.882,4.605A.735.735,0,0,1,5.869,3.548Z" transform="translate(10.716 -2.647)" fill="#8f8f8f"/>
</svg>
