<svg id="Group_1356" data-name="Group 1356" xmlns="http://www.w3.org/2000/svg" width="129.807" height="66.005" viewBox="0 0 129.807 66.005">
  <path id="Icon_material-people" data-name="Icon material-people" d="M66.671,35.788c7.212,0,12.991-6.318,12.991-14.144S73.883,7.5,66.671,7.5,53.637,13.818,53.637,21.644,59.458,35.788,66.671,35.788Zm-34.758,0c7.212,0,12.991-6.318,12.991-14.144S39.125,7.5,31.913,7.5,18.879,13.818,18.879,21.644,24.7,35.788,31.913,35.788Zm0,9.429C21.79,45.217,1.5,50.733,1.5,61.718V73.5H62.326V61.718C62.326,50.733,42.036,45.217,31.913,45.217Zm34.758,0c-1.26,0-2.694.094-4.214.236,5.04,3.96,8.559,9.288,8.559,16.265V73.5H97.084V61.718C97.084,50.733,76.794,45.217,66.671,45.217Z" transform="translate(32.723 -7.5)" fill="#cbcbcb"/>
  <path id="Icon_material-people-2" data-name="Icon material-people" d="M31.913,35.788c-7.212,0-12.991-6.318-12.991-14.144S24.7,7.5,31.913,7.5s13.034,6.318,13.034,14.144S39.125,35.788,31.913,35.788Zm34.758,0c-7.212,0-12.991-6.318-12.991-14.144S59.458,7.5,66.671,7.5,79.7,13.818,79.7,21.644,73.883,35.788,66.671,35.788Zm0,9.429c10.123,0,30.413,5.516,30.413,16.5V73.5H36.258V61.718C36.258,50.733,56.547,45.217,66.671,45.217Zm-34.758,0c1.26,0,2.694.094,4.214.236-5.04,3.96-8.559,9.288-8.559,16.265V73.5H1.5V61.718C1.5,50.733,21.79,45.217,31.913,45.217Z" transform="translate(-1.5 -7.5)" fill="#cbcbcb"/>
</svg>
