<svg xmlns="http://www.w3.org/2000/svg" width="13.142" height="13.143" viewBox="0 0 13.142 13.143">
  <path id="Icon_awesome-phone-alt" data-name="Icon awesome-phone-alt" d="M12.768,9.287,9.893,8.055a.616.616,0,0,0-.719.177L7.9,9.788A9.515,9.515,0,0,1,3.352,5.24L4.908,3.966a.615.615,0,0,0,.177-.719L3.853.373A.62.62,0,0,0,3.147.016L.477.632a.616.616,0,0,0-.477.6,11.909,11.909,0,0,0,11.91,11.91.616.616,0,0,0,.6-.477L13.127,10a.624.624,0,0,0-.36-.708Z" transform="translate(0 0)" fill="#191919"/>
</svg>
