<svg xmlns="http://www.w3.org/2000/svg" width="42.755" height="51.349" viewBox="0 0 42.755 51.349">
  <g id="Group_1334" data-name="Group 1334" transform="translate(0)">
    <path id="Path_2026" data-name="Path 2026" d="M5116.434,380.09c0,6.57-.03,13.14.018,19.709a3.425,3.425,0,0,1-3.527,3.546q-14.73-.073-29.461.007a3.494,3.494,0,0,1-3.676-3.712c.058-10.314.021-20.628.036-30.942a.708.708,0,0,0-.582-.815,8.144,8.144,0,0,1-5.5-8.67,8.249,8.249,0,0,1,6.949-7.133,8.117,8.117,0,0,1,8.277,4.2.86.86,0,0,0,.9.518q11.443-.017,22.886-.01a3.718,3.718,0,0,1,2.276.589,3.259,3.259,0,0,1,1.4,2.8Q5116.431,370.133,5116.434,380.09Zm-26.74-22.142a8.176,8.176,0,0,1-1.669,7.5,8.063,8.063,0,0,1-7.075,2.851v.586c0,10.312.017,20.623-.02,30.935a2.29,2.29,0,0,0,2.437,2.41q14.728-.055,29.455,0a2.324,2.324,0,0,0,2.5-2.515q-.039-19.628,0-39.256a2.307,2.307,0,0,0-2.537-2.528c-7.491.046-14.982.019-22.473.019Zm-7.839-4.792a7.011,7.011,0,1,0,6.975,7.05A6.966,6.966,0,0,0,5081.854,353.156Z" transform="translate(-5073.696 -352.002)" fill="#283285"/>
    <path id="Path_2027" data-name="Path 2027" d="M5175.677,431.5c.751,0,1.413.009,2.074,0,.392-.007.707.117.7.543s-.313.59-.731.589c-2.87,0-5.741,0-8.612,0l-17.632,0c-.152,0-.349.057-.449-.017-.207-.152-.472-.354-.515-.574-.06-.314.194-.527.539-.53.71-.007,1.419,0,2.194,0v-.646q0-4.007,0-8.014c0-1,.341-1.343,1.346-1.344.629,0,1.257,0,1.885,0,.806.006,1.158.36,1.16,1.2.007,2.5,0,5,0,7.5v1.253h1.616v-.592q0-5,0-10.005c0-1.1.314-1.413,1.431-1.415.578,0,1.155,0,1.733,0,.886.008,1.222.344,1.224,1.245q.007,5.054,0,10.107v.652h1.628v-.606q0-6.253,0-12.506c0-1.049.361-1.414,1.4-1.416q.763,0,1.528,0c1.15,0,1.463.308,1.463,1.442q0,6.228,0,12.455v.639h1.618v-.594q0-7.759,0-15.518c0-1.076.325-1.4,1.4-1.4.595,0,1.189,0,1.783,0,.858,0,1.209.364,1.209,1.264q0,7.81,0,15.62Zm-3.227-16.417v16.388h2.063V415.082Zm-5.992,3.031v13.344h2.041V418.114Zm-3.968,13.361V420.6h-2.063v10.872Zm-8.075-.018h2.064v-8.8h-2.064Z" transform="translate(-5140.052 -405.515)" fill="#283285"/>
    <path id="Path_2028" data-name="Path 2028" d="M5159.676,576.614h-8.2c-.152,0-.307.008-.458-.006-.344-.031-.592-.194-.6-.566s.244-.539.586-.576a4.229,4.229,0,0,1,.458-.01h16.45c.752,0,1.051.174,1.035.6-.016.406-.294.558-1.024.559Z" transform="translate(-5139.977 -545.036)" fill="#283285"/>
    <path id="Path_2029" data-name="Path 2029" d="M5159.7,613.746h-8.3c-.136,0-.272.008-.407,0-.34-.032-.576-.249-.509-.563.043-.207.3-.39.495-.536.088-.066.263-.014.4-.014h16.7c.136,0,.312-.051.4.014.2.146.477.349.48.533s-.265.406-.459.552c-.1.074-.3.019-.449.019Z" transform="translate(-5140.021 -577.132)" fill="#283285"/>
    <path id="Path_2030" data-name="Path 2030" d="M5159.854,688.075h-8.3c-.152,0-.341.052-.45-.019-.191-.124-.471-.33-.463-.49.009-.206.249-.417.425-.59.062-.061.228-.022.346-.022h16.905c.135,0,.319-.04.4.03.17.157.4.378.393.562s-.263.379-.452.507c-.106.072-.3.02-.45.02Z" transform="translate(-5140.166 -641.345)" fill="#283285"/>
    <path id="Path_2031" data-name="Path 2031" d="M5159.7,649.914h8.046c.136,0,.271,0,.407,0,.407-.005.793.069.783.575s-.391.573-.8.573h-16.906a1.624,1.624,0,0,1-.254-.008c-.342-.054-.578-.232-.559-.6a.53.53,0,0,1,.575-.526c.424-.014.849-.009,1.273-.009Z" transform="translate(-5139.974 -609.358)" fill="#283285"/>
    <path id="Path_2032" data-name="Path 2032" d="M5313.7,576.618q-1.148,0-2.294,0c-.39,0-.74-.091-.751-.564s.333-.59.725-.591q2.344-.007,4.689,0c.4,0,.744.134.732.59s-.356.569-.756.567C5315.267,576.616,5314.485,576.618,5313.7,576.618Z" transform="translate(-5278.4 -545.04)" fill="#283285"/>
    <path id="Path_2033" data-name="Path 2033" d="M5313.726,688.14c-.8,0-1.591-.005-2.387,0-.4,0-.684-.137-.676-.567s.3-.559.695-.558q2.387.006,4.774,0c.4,0,.684.165.679.576s-.3.557-.7.551C5315.317,688.13,5314.521,688.14,5313.726,688.14Z" transform="translate(-5278.404 -641.41)" fill="#283285"/>
    <path id="Path_2034" data-name="Path 2034" d="M5313.731,613.843c-.8,0-1.592-.005-2.387,0-.4,0-.683-.14-.679-.566s.3-.558.69-.556q2.388.009,4.774,0c.4,0,.688.156.684.567s-.293.565-.695.558C5315.323,613.835,5314.527,613.843,5313.731,613.843Z" transform="translate(-5278.406 -577.229)" fill="#283285"/>
    <path id="Path_2035" data-name="Path 2035" d="M5313.728,651.066c-.781,0-1.562,0-2.344,0-.4,0-.729-.123-.726-.591,0-.445.324-.553.7-.553q2.37,0,4.74,0c.385,0,.7.127.706.554,0,.448-.326.593-.732.593Z" transform="translate(-5278.4 -609.364)" fill="#283285"/>
    <path id="Path_2036" data-name="Path 2036" d="M5101.388,384.826c.836-.849,1.655-1.688,2.484-2.517a2.07,2.07,0,1,1,2.925,2.9q-1.922,1.937-3.848,3.87a2.071,2.071,0,0,1-3.218-.005c-.4-.4-.8-.789-1.189-1.192a2.065,2.065,0,0,1,2.645-3.167C5101.229,384.741,5101.274,384.762,5101.388,384.826Zm-.018,3.963a4.641,4.641,0,0,0,.751-.5c1.307-1.286,2.6-2.587,3.892-3.888.5-.506.555-1.019.162-1.428-.419-.437-.943-.4-1.461.116q-1.317,1.311-2.627,2.63c-.668.67-.725.671-1.437.025a.929.929,0,0,0-1.358-.056.914.914,0,0,0,.04,1.36c.435.454.874.9,1.337,1.327A4.031,4.031,0,0,0,5101.371,388.789Z" transform="translate(-5094.573 -377.516)" fill="#283285"/>
  </g>
</svg>
