<svg xmlns="http://www.w3.org/2000/svg" width="39.17" height="38.926" viewBox="0 0 39.17 38.926">
  <g id="Group_1332" data-name="Group 1332" transform="translate(0)">
    <path id="Path_2004" data-name="Path 2004" d="M6070.112,352.9a2.912,2.912,0,0,1,.883-1.442,2.594,2.594,0,0,1,2.12-.519l8.862,1.353c2.967.454,5.935.9,8.9,1.369a2.41,2.41,0,0,1,2.089,2.524q.007,4.385,0,8.77v.489c1.043.211,2.072.423,3.1.628q5.328,1.061,10.656,2.119c.063.012.125.026.188.035a2.587,2.587,0,0,1,2.369,2.8q-.063,7.889,0,15.778a2.708,2.708,0,0,1-2,3.016H6072.1c-.265-.113-.542-.206-.794-.344a2.67,2.67,0,0,1-1.194-1.647Zm21.194,35.261V356.427c0-.115,0-.23,0-.345a.784.784,0,0,0-.707-.813c-1.155-.184-2.312-.359-3.469-.534q-3.415-.517-6.829-1.03c-2.465-.372-4.928-.751-7.395-1.114-.836-.123-1.155.171-1.155,1.017q0,16.755,0,33.511c0,.794.267,1.063,1.051,1.065q1.72,0,3.441,0c.12,0,.241-.016.38-.026v-.46q0-3.313,0-6.626a2.48,2.48,0,0,1,2.689-2.692q2.218-.006,4.435,0a3.531,3.531,0,0,1,.833.08,2.434,2.434,0,0,1,1.851,2.529c.008,2.234,0,4.468,0,6.7v.468Zm1.688-21.026v21.048h13.474c.922,0,1.16-.235,1.16-1.148q0-5.073,0-10.145,0-2.986,0-5.972c0-.688-.175-.913-.852-1.048q-4.767-.95-9.536-1.887C6095.833,367.7,6094.427,367.422,6092.995,367.137Zm-8.22,21.03c.01-.081.021-.131.021-.181q0-3.519,0-7.039a.849.849,0,0,0-.965-.927q-2.272-.006-4.544,0c-.711,0-1,.287-1,.992q0,3.386,0,6.771c0,.123.012.245.019.384Z" transform="translate(-6070.112 -350.9)" fill="#283285"/>
    <path id="Path_2005" data-name="Path 2005" d="M6120.474,429.538c-.522,0-1.043,0-1.565,0a.8.8,0,0,1-.859-.777.779.779,0,0,1,.823-.85q1.622-.028,3.244,0a.78.78,0,0,1,.822.852.8.8,0,0,1-.862.775C6121.542,429.542,6121.008,429.538,6120.474,429.538Z" transform="translate(-6113.153 -420.031)" fill="#283285"/>
    <path id="Path_2006" data-name="Path 2006" d="M6120.488,477.577c-.534,0-1.068.005-1.6,0a.8.8,0,0,1-.839-.758.764.764,0,0,1,.767-.861q1.678-.035,3.357,0a.766.766,0,0,1,.764.864.8.8,0,0,1-.842.756C6121.557,477.583,6121.023,477.577,6120.488,477.577Z" transform="translate(-6113.148 -463.167)" fill="#283285"/>
    <path id="Path_2007" data-name="Path 2007" d="M6120.483,525.552c-.521,0-1.043,0-1.565,0a.8.8,0,0,1-.87-.767.776.776,0,0,1,.813-.859q1.641-.029,3.282,0a.77.77,0,0,1,.795.838.8.8,0,0,1-.852.786C6121.552,525.557,6121.018,525.552,6120.483,525.552Z" transform="translate(-6113.151 -506.239)" fill="#283285"/>
    <path id="Path_2008" data-name="Path 2008" d="M6120.5,573.555c-.535,0-1.069.005-1.6,0a.8.8,0,0,1-.843-.794.772.772,0,0,1,.8-.831q1.641-.03,3.282,0a.772.772,0,0,1,.805.829.8.8,0,0,1-.879.8C6121.539,573.559,6121.018,573.555,6120.5,573.555Z" transform="translate(-6113.153 -549.339)" fill="#283285"/>
    <path id="Path_2009" data-name="Path 2009" d="M6200.361,429.541c-.522,0-1.043,0-1.565,0a.8.8,0,0,1-.863-.773.779.779,0,0,1,.817-.855q1.622-.029,3.244,0a.811.811,0,0,1,.838.849.83.83,0,0,1-.907.78C6201.4,429.544,6200.883,429.542,6200.361,429.541Z" transform="translate(-6184.877 -420.034)" fill="#283285"/>
    <path id="Path_2010" data-name="Path 2010" d="M6200.37,477.553c-.534,0-1.069.005-1.6,0a.793.793,0,0,1-.845-.792.773.773,0,0,1,.8-.832q1.641-.031,3.282,0a.806.806,0,0,1,.818.829.827.827,0,0,1-.89.8C6201.413,477.556,6200.892,477.553,6200.37,477.553Z" transform="translate(-6184.868 -463.142)" fill="#283285"/>
    <path id="Path_2011" data-name="Path 2011" d="M6200.348,525.568c-.521,0-1.043,0-1.564,0a.794.794,0,0,1-.854-.782.769.769,0,0,1,.79-.841q1.66-.031,3.319,0a.8.8,0,0,1,.792.814.819.819,0,0,1-.841.807C6201.442,525.574,6200.9,525.568,6200.348,525.568Z" transform="translate(-6184.874 -506.255)" fill="#283285"/>
    <path id="Path_2012" data-name="Path 2012" d="M6200.385,573.569c-.534,0-1.068,0-1.6,0a.794.794,0,0,1-.854-.783.77.77,0,0,1,.791-.841q1.66-.031,3.319,0a.8.8,0,0,1,.791.815.818.818,0,0,1-.842.806C6201.454,573.575,6200.92,573.569,6200.385,573.569Z" transform="translate(-6184.873 -549.353)" fill="#283285"/>
    <path id="Path_2013" data-name="Path 2013" d="M6344.08,573.544c-.509,0-1.018,0-1.527,0a.8.8,0,0,1-.864-.772.778.778,0,0,1,.817-.855q1.621-.029,3.243,0a.812.812,0,0,1,.839.848.829.829,0,0,1-.905.781C6345.148,573.546,6344.614,573.544,6344.08,573.544Z" transform="translate(-6313.949 -549.328)" fill="#283285"/>
    <path id="Path_2014" data-name="Path 2014" d="M6344.11,621.545c-.521,0-1.043,0-1.564,0a.8.8,0,0,1-.86-.776.78.78,0,0,1,.822-.851q1.622-.028,3.244,0a.811.811,0,0,1,.835.814.824.824,0,0,1-.874.814C6345.179,621.55,6344.645,621.545,6344.11,621.545Z" transform="translate(-6313.946 -592.427)" fill="#283285"/>
    <path id="Path_2015" data-name="Path 2015" d="M6344.107,669.567c-.521,0-1.043,0-1.564,0a.794.794,0,0,1-.857-.779.768.768,0,0,1,.787-.844q1.659-.032,3.319,0a.8.8,0,0,1,.793.849.823.823,0,0,1-.875.773C6345.176,669.572,6344.642,669.567,6344.107,669.567Z" transform="translate(-6313.947 -635.546)" fill="#283285"/>
  </g>
</svg>
