<svg id="Group_1360" data-name="Group 1360" xmlns="http://www.w3.org/2000/svg" width="80.07" height="90.908" viewBox="0 0 80.07 90.908">
  <path id="Path_2057" data-name="Path 2057" d="M-344.036,483.187c-2.225-.286-4.456-.524-6.672-.867a69.48,69.48,0,0,1-11.853-3.283c-.217-.075-.357-.432-.487-.682-.06-.117-.011-.29-.011-.439q0-19.084-.017-38.169a1.243,1.243,0,0,1,.829-1.335,30.756,30.756,0,0,0,7.416-4.637,19.156,19.156,0,0,0,5.084-8.3,45.9,45.9,0,0,0,2.692-14.229,2.569,2.569,0,0,1,2.284-2.725c3.346-.3,6.569.07,9.338,2.235a10.4,10.4,0,0,1,4.336,8.363,49.992,49.992,0,0,1-1.783,13.855c-.2.7-.484,1.372-.772,2.176h1.143q9.454,0,18.907,0A9.381,9.381,0,0,1-306.6,437.8a7.741,7.741,0,0,1,.865,9.773c-.2.29-.414.576-.658.916a7.884,7.884,0,0,1,1.672,7.609,7.822,7.822,0,0,1-5.45,5.447c.837,6.131-.164,8.133-5.127,10.624a23.869,23.869,0,0,1,.084,4.452A8.076,8.076,0,0,1-321.8,483a5.108,5.108,0,0,0-.573.182Z" transform="translate(384.432 -392.278)" fill="#cbcbcb"/>
  <path id="Path_2058" data-name="Path 2058" d="M-457.057,576.6a3.229,3.229,0,0,1-2.044-3.435c.038-13.723.021-27.447.022-41.17,0-2.527.9-3.432,3.406-3.434q4.658,0,9.317,0c2.314.005,3.29.986,3.291,3.3q0,20.674.017,41.348a3.157,3.157,0,0,1-2.112,3.392Z" transform="translate(459.101 -485.695)" fill="#cbcbcb"/>
  <path id="Path_2059" data-name="Path 2059" d="M-312.209,335.825a2.509,2.509,0,0,1,2.161,1.37c.956,1.833,1.9,3.673,2.776,5.547a2.616,2.616,0,0,1-1.244,3.467,2.573,2.573,0,0,1-3.455-1.059c-1-1.844-1.956-3.714-2.817-5.624A2.654,2.654,0,0,1-312.209,335.825Z" transform="translate(347.062 -335.82)" fill="#cbcbcb"/>
  <path id="Path_2060" data-name="Path 2060" d="M-222.977,338.692a3.134,3.134,0,0,1-.206.8c-.92,1.885-1.836,3.772-2.818,5.625a2.566,2.566,0,0,1-2.779,1.307,2.608,2.608,0,0,1-2.113-2.13,2.331,2.331,0,0,1,.1-1.3c.959-2.027,1.929-4.054,3.007-6.02a2.443,2.443,0,0,1,2.945-1.041A2.691,2.691,0,0,1-222.977,338.692Z" transform="translate(281.677 -335.801)" fill="#cbcbcb"/>
  <path id="Path_2061" data-name="Path 2061" d="M-357.579,412.992c-.916,0-1.833.022-2.748,0a2.6,2.6,0,0,1-2.615-2.48,2.523,2.523,0,0,1,2.293-2.775,52.087,52.087,0,0,1,6.022,0,2.576,2.576,0,0,1,2.328,2.764,2.631,2.631,0,0,1-2.62,2.5C-355.806,413.014-356.693,412.991-357.579,412.992Z" transform="translate(384.329 -391.666)" fill="#cbcbcb"/>
  <path id="Path_2062" data-name="Path 2062" d="M-189.778,412.977c-.857,0-1.714.019-2.57,0a2.644,2.644,0,0,1-2.693-2.515,2.607,2.607,0,0,1,2.433-2.766,56.762,56.762,0,0,1,5.846.008,2.535,2.535,0,0,1,2.357,2.805,2.587,2.587,0,0,1-2.625,2.465C-187.946,413-188.862,412.976-189.778,412.977Z" transform="translate(253.767 -391.65)" fill="#cbcbcb"/>
</svg>
