<svg xmlns="http://www.w3.org/2000/svg" width="17.529" height="17.53" viewBox="0 0 17.529 17.53">
  <path id="Icon_ionic-ios-person" data-name="Icon ionic-ios-person" d="M22.021,21.587c-.329-1.452-2.2-2.159-2.853-2.388a21.273,21.273,0,0,0-2.378-.457,2.417,2.417,0,0,1-1.1-.507,9.615,9.615,0,0,1-.073-2.251,6.771,6.771,0,0,0,.52-.991,12.778,12.778,0,0,0,.383-1.73s.374,0,.507-.657a6.468,6.468,0,0,0,.338-1.529c-.027-.525-.315-.511-.315-.511a8,8,0,0,0,.31-2.342A3.761,3.761,0,0,0,13.27,4.5c-2.7,0-4.136,1.849-4.095,3.725a8.349,8.349,0,0,0,.306,2.342s-.288-.014-.315.511A6.468,6.468,0,0,0,9.5,12.608c.128.657.507.657.507.657A12.778,12.778,0,0,0,10.394,15a6.771,6.771,0,0,0,.52.991,9.615,9.615,0,0,1-.073,2.251,2.417,2.417,0,0,1-1.1.507,21.273,21.273,0,0,0-2.378.457c-.648.228-2.525.936-2.853,2.388a.365.365,0,0,0,.361.443h16.8A.364.364,0,0,0,22.021,21.587Z" transform="translate(-4.501 -4.5)" fill="#283285" opacity="0.5"/>
</svg>
