<svg xmlns="http://www.w3.org/2000/svg" width="47.16" height="41.45" viewBox="0 0 47.16 41.45">
  <g id="Group_1331" data-name="Group 1331" transform="translate(0 0)">
    <path id="Path_2000" data-name="Path 2000" d="M6643.517,407.348c.074-.327.14-.656.224-.981a8.132,8.132,0,0,1,3.248-4.714,1.6,1.6,0,0,0,.486-.579,19.352,19.352,0,0,1,14.083-11.04,26.611,26.611,0,0,1,3.518-.354c.65-.048.916.248.917.914q0,8.951-.005,17.9a1.023,1.023,0,0,0,.327.8q6.278,6.269,12.54,12.554c.633.634.631.938-.023,1.561a19.582,19.582,0,0,1-19.524,4.553c-.2-.066-.375-.128-.571.083a2.8,2.8,0,0,1-2.158.856c-3.361,0-6.723.009-10.083,0a2.817,2.817,0,0,1-2.895-2.161c-.014-.039-.055-.068-.083-.1v-1.108l.772-1.562-.772-1.576v-1.108l.787-1.5-.787-1.544v-1.108a1.518,1.518,0,0,0,.1-.2,2.835,2.835,0,0,1,2.43-2.08c.229-.036.463-.031.764-.048-.17-.145-.271-.235-.376-.322a8,8,0,0,1-2.677-4.233c-.083-.321-.158-.643-.237-.965Zm34.022,15.244c-.166-.144-.3-.248-.418-.367q-6.074-6.083-12.152-12.163a1.418,1.418,0,0,1-.455-1.095q.018-8.606.008-17.212v-.579a18.065,18.065,0,0,0-15.076,9.314A7.912,7.912,0,0,1,6658.31,404c2.332,4.095,1.431,7.692-1.971,10.829a2.853,2.853,0,0,1,2.973,1.7,2.793,2.793,0,0,1-.62,3.224,3,3,0,0,1,.005,4.23,2.766,2.766,0,0,1,.85,2.059c-.025.379.134.5.449.59a18.2,18.2,0,0,0,8.552.47A17.871,17.871,0,0,0,6677.539,422.592Zm-26.03-7.758a6.557,6.557,0,1,0-6.52-6.556A6.538,6.538,0,0,0,6651.509,414.834Zm.026,4.2q2.416,0,4.831,0a3.9,3.9,0,0,0,.6-.036,1.331,1.331,0,0,0,.252-2.561,2.491,2.491,0,0,0-.769-.1q-4.9-.01-9.8,0a2.961,2.961,0,0,0-.594.051,1.327,1.327,0,0,0,.057,2.611,4.1,4.1,0,0,0,.641.038Q6649.144,419.035,6651.535,419.033Zm.035,1.5q-2.554,0-5.108,0a1.36,1.36,0,0,0-1.469,1.318,1.383,1.383,0,0,0,1.478,1.371q5.062.006,10.124,0a1.351,1.351,0,1,0-.009-2.69Q6654.078,420.533,6651.57,420.535Zm-.042,6.861q2.531,0,5.063,0a1.346,1.346,0,0,0,1.486-1.336,1.366,1.366,0,0,0-1.485-1.357q-5.04-.007-10.078,0a1.4,1.4,0,0,0-1.52,1.38,1.37,1.37,0,0,0,1.519,1.314Q6649.021,427.4,6651.528,427.4Z" transform="translate(-6643.517 -387.461)" fill="#283285"/>
    <path id="Path_2001" data-name="Path 2001" d="M6851.428,392.025h-9.207c-.709,0-.959-.252-.959-.975q0-9.2,0-18.406c0-.714.277-.98.977-.965a19.186,19.186,0,0,1,14.191,6.361,18.866,18.866,0,0,1,4.995,10.852c.086.731.133,1.468.164,2.2.027.652-.26.928-.907.928Q6856.054,392.027,6851.428,392.025Zm-8.636-18.807v17.3h17.242A18,18,0,0,0,6842.792,373.219Z" transform="translate(-6816.931 -371.678)" fill="#283285"/>
    <path id="Path_2002" data-name="Path 2002" d="M6871.937,552.127h9.115c.842,0,1.078.226,1.06,1.059a19.373,19.373,0,0,1-5.6,13.436.772.772,0,0,1-1.3.005q-6.53-6.538-13.058-13.078a.826.826,0,0,1-.289-.945c.163-.4.509-.481.906-.48Q6867.357,552.132,6871.937,552.127Zm-7.384,1.514,11.395,11.419a17.962,17.962,0,0,0,4.666-11.419Z" transform="translate(-6834.954 -529.922)" fill="#283285"/>
    <path id="Path_2003" data-name="Path 2003" d="M6688.894,501.457c0-.221-.009-.42,0-.619a.731.731,0,0,1,.76-.749.678.678,0,0,1,.7.746c-.04.468.134.654.561.81a2.03,2.03,0,0,1,1.251,1.385.747.747,0,0,1-.433.986.73.73,0,0,1-.962-.462,1.227,1.227,0,0,0-1.736-.539.6.6,0,0,0-.046,1.06,4.314,4.314,0,0,0,.933.367c.29.1.6.144.885.241a2.039,2.039,0,0,1,1.487,1.8,2.13,2.13,0,0,1-1.316,2.123c-.193.086-.394.152-.613.237,0,.206.011.405,0,.6a.739.739,0,0,1-.7.715c-.363.014-.784-.3-.741-.668.068-.61-.257-.833-.7-1.147a4.939,4.939,0,0,1-1.144-1.34.715.715,0,0,1,.311-1.051.732.732,0,0,1,1,.389,1.542,1.542,0,0,0,1.817.963c.328-.094.6-.28.611-.656.008-.352-.261-.493-.56-.575-.414-.113-.833-.207-1.24-.337a2.236,2.236,0,0,1-1.786-2.03A2.163,2.163,0,0,1,6688.894,501.457Z" transform="translate(-6681.611 -484.289)" fill="#283285"/>
  </g>
</svg>
