<svg xmlns="http://www.w3.org/2000/svg" width="44.807" height="48.672" viewBox="0 0 44.807 48.672">
  <g id="Group_1333" data-name="Group 1333" transform="translate(0)">
    <path id="Path_2016" data-name="Path 2016" d="M5676.63,440c-.138-.066-.274-.136-.413-.2a2.448,2.448,0,0,1-1.405-2.853c.14-.563.306-1.119.475-1.734h-.611q-7.687,0-15.374,0a3.132,3.132,0,0,1-.612-.041.649.649,0,0,1-.567-.706.669.669,0,0,1,.592-.692,2.461,2.461,0,0,1,.519-.025q8.067,0,16.133.006a.735.735,0,0,0,.724-.38,7.185,7.185,0,0,1,.959-1.17q3.964-3.995,7.954-7.963a1.112,1.112,0,0,0,.352-.872q-.012-12.286-.006-24.573c0-.174-.006-.349.009-.522a.657.657,0,0,1,.676-.658.676.676,0,0,1,.73.606,2.648,2.648,0,0,1,.014.521V422.4c.158-.135.264-.214.356-.306,1.064-1.063,2.124-2.13,3.19-3.191a3.146,3.146,0,0,1,4.711-.014c.283.277.563.556.838.841a3.147,3.147,0,0,1-.015,4.585c-1.725,1.745-3.464,3.475-5.2,5.212-2.639,2.644-5.3,5.271-7.909,7.94a7.222,7.222,0,0,1-3.506,2.05c-.531.131-1.048.32-1.572.482Zm.949-6.142,3.3,3.3,8.412-8.471-3.249-3.247Zm15.632-8.96c.57-.561,1.192-1.124,1.756-1.74a1.665,1.665,0,0,0-.032-2.321q-.514-.557-1.072-1.073a1.653,1.653,0,0,0-2.316-.032c-.614.566-1.178,1.187-1.74,1.76Zm-4.419-2.239-1.614,1.612,3.253,3.257,1.621-1.6Zm-9.546,15.348-2.524-2.525c-.161.56-.354,1.177-.513,1.8a1.006,1.006,0,0,0,1.24,1.237C5678.073,438.365,5678.688,438.171,5679.247,438.01Z" transform="translate(-5652.052 -391.331)" fill="#283285"/>
    <path id="Path_2017" data-name="Path 2017" d="M5641.068,348c.208.066.415.13.621.2a4.581,4.581,0,0,1,3.047,3.016c.189.551.032.939-.408,1.1s-.768-.077-.967-.649a3.159,3.159,0,0,0-3.08-2.233q-12.693-.01-25.385,0a3.2,3.2,0,0,0-3.245,3.4q0,15.066,0,30.133c0,1.363,0,2.725,0,4.087a3.193,3.193,0,0,0,2.141,3.2c.51.214.714.584.543.987s-.563.542-1.076.359a4.569,4.569,0,0,1-3.028-4.247q-.009-17.4,0-34.791a4.605,4.605,0,0,1,3.582-4.455,2.968,2.968,0,0,0,.3-.1Z" transform="translate(-5610.226 -348)" fill="#283285"/>
    <path id="Path_2018" data-name="Path 2018" d="M5679.245,373.993c2.309,0,4.617.046,6.923-.016a2.718,2.718,0,0,1,2.9,2.938c-.026.568.015,1.144-.063,1.7a2.534,2.534,0,0,1-2.586,2.23q-7.184.006-14.368,0a2.518,2.518,0,0,1-2.625-2.24,9.321,9.321,0,0,1,0-2.364,2.508,2.508,0,0,1,2.66-2.25C5674.473,373.985,5676.859,373.993,5679.245,373.993Zm-.02,1.437q-3.559,0-7.117,0a1.152,1.152,0,0,0-1.276,1.211c-.021.538-.021,1.078,0,1.615a1.114,1.114,0,0,0,1.139,1.156q7.236.023,14.47,0a1.129,1.129,0,0,0,1.154-1.192c.015-.459.007-.919,0-1.378-.006-1-.415-1.415-1.405-1.415Q5682.712,375.428,5679.225,375.43Z" transform="translate(-5661.857 -370.684)" fill="#283285"/>
    <path id="Path_2019" data-name="Path 2019" d="M5656.839,520.43a3.116,3.116,0,0,1,3.1,3.153,3.126,3.126,0,1,1-6.251-.044A3.116,3.116,0,0,1,5656.839,520.43Zm-.036,4.792a1.686,1.686,0,0,0,1.707-1.662,1.693,1.693,0,0,0-3.386-.029A1.688,1.688,0,0,0,5656.8,525.222Z" transform="translate(-5648.183 -498.574)" fill="#283285"/>
    <path id="Path_2020" data-name="Path 2020" d="M5656.749,591.468a3.126,3.126,0,1,1-3.055,3.253A3.135,3.135,0,0,1,5656.749,591.468Zm.074,1.448a1.677,1.677,0,1,0,1.689,1.681A1.688,1.688,0,0,0,5656.822,592.915Z" transform="translate(-5648.183 -560.607)" fill="#283285"/>
    <path id="Path_2021" data-name="Path 2021" d="M5739.494,468.137c1.816,0,3.632,0,5.449,0a1.025,1.025,0,0,1,.591.093c.2.164.438.446.418.655-.023.234-.285.482-.5.648-.125.1-.364.06-.553.06q-5.4,0-10.8,0c-.785,0-1.1-.209-1.1-.727s.324-.734,1.095-.735Z" transform="translate(-5717.437 -452.909)" fill="#283285"/>
    <path id="Path_2022" data-name="Path 2022" d="M5739.5,610.5c1.9,0,3.791-.013,5.685.017a.975.975,0,0,1,.684.378.756.756,0,0,1-.028.688.855.855,0,0,1-.621.326c-3.821.019-7.644.016-11.465.012a.711.711,0,1,1,.013-1.417C5735.673,610.492,5737.584,610.5,5739.5,610.5Z" transform="translate(-5717.429 -577.221)" fill="#283285"/>
    <path id="Path_2023" data-name="Path 2023" d="M5739.348,540.729c-1.864,0-3.728.011-5.59-.013a1.155,1.155,0,0,1-.749-.284.693.693,0,0,1,.441-1.125,2.29,2.29,0,0,1,.425-.015h10.943a3.277,3.277,0,0,1,.333,0,.739.739,0,0,1,.7.753.707.707,0,0,1-.721.67c-.694.017-1.39.008-2.084.008Z" transform="translate(-5717.299 -515.044)" fill="#283285"/>
    <path id="Path_2024" data-name="Path 2024" d="M5651.964,450.841l3.143-3.156c.168-.168.332-.341.5-.5a.722.722,0,1,1,1.006,1.024c-.618.635-1.25,1.257-1.876,1.884-.692.695-1.383,1.392-2.08,2.083-.512.508-.829.51-1.33.013-.483-.479-.966-.958-1.442-1.445a.732.732,0,0,1-.077-1.091.7.7,0,0,1,1.084.071C5651.247,450.063,5651.573,450.429,5651.964,450.841Z" transform="translate(-5644.612 -434.382)" fill="#283285"/>
    <path id="Path_2025" data-name="Path 2025" d="M5852.588,644.55a3.8,3.8,0,0,1-.385.619c-.682.705-1.378,1.4-2.078,2.086a.72.72,0,1,1-1.012-1.01c.711-.722,1.411-1.457,2.162-2.135a.993.993,0,0,1,.808-.14C5852.28,644.025,5852.408,644.331,5852.588,644.55Z" transform="translate(-5818.6 -606.43)" fill="#283285"/>
  </g>
</svg>
