<svg xmlns="http://www.w3.org/2000/svg" width="37.457" height="42.144" viewBox="0 0 37.457 42.144">
  <g id="Group_1330" data-name="Group 1330" transform="translate(0)">
    <path id="Path_1981" data-name="Path 1981" d="M3519.294,348a4.578,4.578,0,0,1,1.913,1.346q2.7,2.737,5.43,5.441a2.981,2.981,0,0,1,.929,2.245c-.006.809,0,1.618,0,2.428,0,.592-.206.879-.624.884s-.64-.285-.642-.866c0-.8,0-1.591,0-2.387v-.5h-.485c-1.479,0-2.958,0-4.436,0a2.2,2.2,0,0,1-2.408-2.431c0-1.618,0-3.236,0-4.906-.161-.008-.3-.023-.449-.023q-10.555,0-21.109,0a1.374,1.374,0,0,0-1.524,1.529q0,18.311,0,36.622a1.377,1.377,0,0,0,1.529,1.525q13.7,0,27.393,0a1.345,1.345,0,0,0,1.489-1.467,2.3,2.3,0,0,1,.007-.329c.056-.348.229-.588.614-.594a.592.592,0,0,1,.633.57,2.675,2.675,0,0,1-1.681,2.9c-.139.052-.277.106-.416.159H3496.7c-.109-.048-.216-.1-.327-.143a2.571,2.571,0,0,1-1.705-2.086,2.8,2.8,0,0,1-.018-.493q0-18.35,0-36.7a2.572,2.572,0,0,1,1.917-2.641.658.658,0,0,0,.134-.08Zm.913,2.244c0,1.369-.011,2.738,0,4.106a.922.922,0,0,0,1.015.985c1.189.006,2.378,0,3.568,0h.5Z" transform="translate(-3494.65 -348)" fill="#283285"/>
    <path id="Path_1982" data-name="Path 1982" d="M3666.606,487q0,4.526,0,9.052a2.165,2.165,0,0,1-2.336,2.365q-8.111,0-16.222,0a2.138,2.138,0,0,1-2.312-2.3q-.006-6.625-.005-13.25c0-.357.054-.665.427-.8a.617.617,0,0,1,.806.535,3.492,3.492,0,0,1,.006.411q0,6.481,0,12.962c0,.894.309,1.2,1.214,1.2h15.975c.894,0,1.21-.319,1.21-1.217q0-8.991,0-17.982c0-.87-.32-1.19-1.191-1.19h-16.016c-.88,0-1.191.31-1.192,1.178,0,.562,0,1.125,0,1.687,0,.47-.249.746-.638.736-.37-.01-.592-.274-.595-.732-.005-.658-.01-1.317,0-1.975a2.118,2.118,0,0,1,2.182-2.137q5.812-.007,11.622,0,2.4,0,4.805,0a2.149,2.149,0,0,1,2.257,2.278Q3666.609,482.415,3666.606,487Z" transform="translate(-3629.15 -461.55)" fill="#283285"/>
    <path id="Path_1983" data-name="Path 1983" d="M3682.067,502.736q2.936,0,5.871,0c1,0,1.4.394,1.4,1.388q0,1.337,0,2.674a1.148,1.148,0,0,1-1.307,1.314c-1.766.007-3.531,0-5.3,0-2.148,0-4.3-.015-6.446.007-.839.009-1.472-.373-1.42-1.419.044-.889.006-1.782.01-2.673a1.128,1.128,0,0,1,1.28-1.291C3678.125,502.732,3680.1,502.736,3682.067,502.736Zm-5.937,1.293v2.787h11.946v-2.787Z" transform="translate(-3655.083 -485.753)" fill="#283285"/>
    <path id="Path_1984" data-name="Path 1984" d="M3548.334,388.963c0-.262-.01-.522,0-.781a.612.612,0,0,1,1.223.014c.011.231,0,.464,0,.6.62.3,1.2.538,1.728.865a.575.575,0,0,1-.017,1.036,1.082,1.082,0,0,1-.713-.059,8.887,8.887,0,0,1-1-.509c0,1.193,0,2.261.007,3.328a.347.347,0,0,0,.17.232,3.324,3.324,0,0,0,.458.178,2.9,2.9,0,0,1,2.082,2.918,3.333,3.333,0,0,1-2.252,3.079c-.141.046-.285.084-.466.138,0,.271.006.543,0,.814a.615.615,0,1,1-1.227.015c-.01-.246-.012-.492-.02-.738,0-.012-.014-.023-.035-.053a4.3,4.3,0,0,1-2.1-.691c-.439-.279-.567-.607-.364-.947s.556-.359,1-.135.938.4,1.467.625c.023-.222.042-.324.043-.426,0-1.221,0-2.441.006-3.662a.418.418,0,0,0-.285-.466,6.554,6.554,0,0,1-.76-.4,2.351,2.351,0,0,1-1.24-2.559,2.68,2.68,0,0,1,1.868-2.288C3548.048,389.042,3548.179,389.009,3548.334,388.963Zm1.254,6.064v3.623a2.038,2.038,0,0,0,1.457-2.046A1.655,1.655,0,0,0,3549.588,395.027Zm-1.255-2c0-.873,0-1.707,0-2.542a1.064,1.064,0,0,0-.021-.154,1.414,1.414,0,0,0-1.047,1.35C3547.22,392.328,3547.546,392.751,3548.333,393.029Z" transform="translate(-3540.118 -383.238)" fill="#283285"/>
    <path id="Path_1985" data-name="Path 1985" d="M3541.562,541.455c-1.285,0-2.57,0-3.854,0a.859.859,0,0,1-.476-.063c-.175-.136-.4-.356-.394-.537a1.006,1.006,0,0,1,.374-.6c.1-.089.311-.068.473-.069q3.875-.005,7.749,0c.161,0,.373-.021.473.068a1.018,1.018,0,0,1,.389.593c0,.181-.225.4-.4.54a.859.859,0,0,1-.476.065C3544.131,541.456,3542.847,541.455,3541.562,541.455Z" transform="translate(-3532.208 -519.093)" fill="#283285"/>
    <path id="Path_1986" data-name="Path 1986" d="M3541.364,589.417c1.355,0,2.711,0,4.066,0a.613.613,0,0,1,.647.6.634.634,0,0,1-.626.632c-.068.005-.136,0-.205,0h-7.886c-.524,0-.794-.21-.8-.612s.257-.625.779-.626q2.013,0,4.025,0Z" transform="translate(-3531.959 -562.92)" fill="#283285"/>
    <path id="Path_1987" data-name="Path 1987" d="M3541.318,639.566h-3.82a3.218,3.218,0,0,1-.41-.014.561.561,0,0,1-.529-.535.574.574,0,0,1,.432-.659,1.5,1.5,0,0,1,.446-.04q3.861,0,7.722,0c.1,0,.192-.005.287,0a.642.642,0,0,1,.626.636.62.62,0,0,1-.647.6c-.52.015-1.041.006-1.561.006Z" transform="translate(-3531.955 -606.453)" fill="#283285"/>
    <path id="Path_1988" data-name="Path 1988" d="M3784.839,572.211a4.916,4.916,0,0,1-.654-.005.591.591,0,0,1-.583-.618.569.569,0,0,1,.575-.62,10.117,10.117,0,0,1,1.389,0,.572.572,0,0,1,.568.59.589.589,0,0,1-.56.641,5.22,5.22,0,0,1-.735.007Z" transform="translate(-3751.89 -546.476)" fill="#283285"/>
    <path id="Path_1989" data-name="Path 1989" d="M3784.867,601.437a5.064,5.064,0,0,1-.694-.006.586.586,0,0,1-.571-.628.574.574,0,0,1,.587-.61,10.147,10.147,0,0,1,1.349,0,.584.584,0,0,1,.6.608.593.593,0,0,1-.573.631A5.056,5.056,0,0,1,3784.867,601.437Z" transform="translate(-3751.89 -572.494)" fill="#283285"/>
    <path id="Path_1990" data-name="Path 1990" d="M3784.839,630.7a4.63,4.63,0,0,1-.694-.006.582.582,0,0,1-.549-.646.566.566,0,0,1,.57-.584,10.03,10.03,0,0,1,1.389,0,.575.575,0,0,1,.573.626.584.584,0,0,1-.554.6A5.4,5.4,0,0,1,3784.839,630.7Z" transform="translate(-3751.884 -598.554)" fill="#283285"/>
    <path id="Path_1991" data-name="Path 1991" d="M3676.309,571.044a5.116,5.116,0,0,1,.694.006.584.584,0,0,1,.551.607.565.565,0,0,1-.54.614,9.084,9.084,0,0,1-1.469,0,.553.553,0,0,1-.524-.621.572.572,0,0,1,.552-.6A5.78,5.78,0,0,1,3676.309,571.044Z" transform="translate(-3655.225 -546.556)" fill="#283285"/>
    <path id="Path_1992" data-name="Path 1992" d="M3712.371,570.989a5.355,5.355,0,0,1,.654,0,.582.582,0,0,1,.579.619.573.573,0,0,1-.577.62,9.994,9.994,0,0,1-1.349,0,.631.631,0,0,1-.614-.642.647.647,0,0,1,.653-.608c.217-.016.436,0,.654,0Z" transform="translate(-3687.312 -546.506)" fill="#283285"/>
    <path id="Path_1993" data-name="Path 1993" d="M3676.312,600.234c.2,0,.411-.015.614,0a.626.626,0,1,1,0,1.251,11.125,11.125,0,0,1-1.309,0,.624.624,0,0,1,0-1.247,6.432,6.432,0,0,1,.695,0Z" transform="translate(-3655.222 -572.545)" fill="#283285"/>
    <path id="Path_1994" data-name="Path 1994" d="M3712.341,601.457a5.156,5.156,0,0,1-.694-.006.618.618,0,0,1,.014-1.231,10.439,10.439,0,0,1,1.389,0,.566.566,0,0,1,.57.622.588.588,0,0,1-.585.615,5.566,5.566,0,0,1-.694.005Z" transform="translate(-3687.329 -572.518)" fill="#283285"/>
    <path id="Path_1995" data-name="Path 1995" d="M3676.271,630.689a6.311,6.311,0,0,1-.654,0,.606.606,0,0,1-.6-.646.578.578,0,0,1,.6-.6,10.085,10.085,0,0,1,1.349,0,.583.583,0,0,1,.585.618.6.6,0,0,1-.584.622,5.4,5.4,0,0,1-.695.006Z" transform="translate(-3655.222 -598.532)" fill="#283285"/>
    <path id="Path_1996" data-name="Path 1996" d="M3712.336,630.708a5.444,5.444,0,0,1-.694-.006.618.618,0,0,1-.566-.641.593.593,0,0,1,.574-.59,10.4,10.4,0,0,1,1.389,0,.567.567,0,0,1,.574.62.587.587,0,0,1-.582.618,5.5,5.5,0,0,1-.694.006Z" transform="translate(-3687.322 -598.559)" fill="#283285"/>
    <path id="Path_1997" data-name="Path 1997" d="M3748.623,572.211a6.485,6.485,0,0,1-.654,0,.613.613,0,0,1-.606-.643.588.588,0,0,1,.6-.6,11.472,11.472,0,0,1,1.348,0,.583.583,0,0,1,.588.616.6.6,0,0,1-.583.624,5.865,5.865,0,0,1-.694.005Z" transform="translate(-3719.627 -546.474)" fill="#283285"/>
    <path id="Path_1998" data-name="Path 1998" d="M3748.649,601.454a6.718,6.718,0,0,1-.694,0,.611.611,0,0,1-.6-.651.593.593,0,0,1,.61-.595,12.28,12.28,0,0,1,1.308,0,.631.631,0,0,1,.627.63.655.655,0,0,1-.641.622c-.2.018-.409,0-.613,0Z" transform="translate(-3719.622 -572.508)" fill="#283285"/>
    <path id="Path_1999" data-name="Path 1999" d="M3748.635,630.716a4.862,4.862,0,0,1-.693-.006.586.586,0,0,1-.553-.645.568.568,0,0,1,.568-.587,11.311,11.311,0,0,1,1.389,0,.618.618,0,0,1,.024,1.232,5.738,5.738,0,0,1-.735.006Z" transform="translate(-3719.65 -598.566)" fill="#283285"/>
  </g>
</svg>
