<svg id="Group_1337" data-name="Group 1337" xmlns="http://www.w3.org/2000/svg" width="36.518" height="46.368" viewBox="0 0 36.518 46.368">
  <path id="Path_2045" data-name="Path 2045" d="M4135.736,394.368c-.12-.053-.236-.113-.359-.157a2.948,2.948,0,0,1-1.978-2.708c-.005-.181,0-.362,0-.543,0-13.078.017-26.157-.02-39.235-.005-1.826.553-3.13,2.359-3.725h5.6c.293.266.55.59.306.968a.971.971,0,0,1-.694.372c-1.46.034-2.921.015-4.382.017a1.6,1.6,0,0,0-1.8,1.775q0,20.055,0,40.11a1.589,1.589,0,0,0,1.757,1.769q15.113,0,30.227,0a1.591,1.591,0,0,0,1.757-1.77c.006-2.6,0-5.191,0-7.786,0-.735.215-1.051.7-1.038.468.013.674.326.674,1.027q0,3.825,0,7.651a2.969,2.969,0,0,1-2.281,3.21c-.023.008-.039.042-.059.064Z" transform="translate(-4133.377 -348)" fill="#283285"/>
  <path id="Path_2046" data-name="Path 2046" d="M4238.185,348c.12.053.237.113.36.157a2.934,2.934,0,0,1,1.975,2.71c.016.573,0,1.147,0,1.72q0,13.692,0,27.384a2.255,2.255,0,0,1-.026.54.639.639,0,0,1-.724.539.619.619,0,0,1-.609-.61,5.608,5.608,0,0,1-.015-.588q0-14.258-.005-28.516a3.182,3.182,0,0,0-.122-.978,1.536,1.536,0,0,0-1.6-1q-4.2,0-8.4,0-7.183,0-14.366,0c-.381,0-.727-.026-.889-.447s.089-.677.38-.912Z" transform="translate(-4204.01 -348)" fill="#283285"/>
  <path id="Path_2047" data-name="Path 2047" d="M4190.878,560.37h11.741c.136,0,.272-.008.406,0a.7.7,0,0,1,.694.693.67.67,0,0,1-.655.679,4.22,4.22,0,0,1-.451.016h-23.573a3.594,3.594,0,0,1-.495-.025.639.639,0,0,1-.6-.674.663.663,0,0,1,.606-.678,2.489,2.489,0,0,1,.451-.014Z" transform="translate(-4172.563 -534.724)" fill="#283285"/>
  <path id="Path_2048" data-name="Path 2048" d="M4190.756,471.637h-11.876c-.689,0-1.02-.22-1.021-.677s.34-.687,1.017-.687h23.753c.121,0,.242-.007.361,0a.7.7,0,0,1,.66.679.681.681,0,0,1-.656.673c-.15.013-.3.007-.452.007Z" transform="translate(-4172.488 -455.507)" fill="#283285"/>
  <path id="Path_2049" data-name="Path 2049" d="M4190.765,501.667h-11.876c-.69,0-1.02-.219-1.022-.674s.345-.694,1.014-.694h23.752c.091,0,.181,0,.271,0a.72.72,0,0,1,.752.685.682.682,0,0,1-.744.678c-.948.011-1.9,0-2.845,0Z" transform="translate(-4172.494 -481.907)" fill="#283285"/>
  <path id="Path_2050" data-name="Path 2050" d="M4190.716,531.7h-11.831c-.682,0-1.02-.228-1.017-.682s.353-.693,1.02-.693h23.752c.09,0,.181,0,.271,0a.724.724,0,0,1,.746.694.687.687,0,0,1-.749.674c-.752.012-1.5,0-2.258,0Z" transform="translate(-4172.496 -508.304)" fill="#283285"/>
  <path id="Path_2051" data-name="Path 2051" d="M4342.089,615.248c-.5-.22-.98-.4-1.425-.633a.671.671,0,0,1-.354-.974c.208-.37.6-.439,1.052-.2.217.117.445.214.74.355,0-.943.017-1.785-.018-2.625-.005-.126-.239-.27-.394-.357a2.112,2.112,0,0,1-1.039-2.894,2.074,2.074,0,0,1,1.131-1.112.426.426,0,0,0,.333-.449.693.693,0,0,1,.677-.752c.37,0,.633.238.681.694.025.242.118.316.347.374a4.092,4.092,0,0,1,.957.382.647.647,0,0,1,.287.891.688.688,0,0,1-.921.312c-.191-.08-.379-.167-.652-.289,0,.7-.01,1.345.013,1.984,0,.085.161.2.27.241a2.333,2.333,0,0,1,1.681,2.273,2.63,2.63,0,0,1-1.672,2.514.537.537,0,0,0-.284.324c-.1.644-.3.925-.718.91s-.634-.319-.683-.948C4342.095,615.245,4342.078,615.218,4342.089,615.248Zm1.425-1.69c.785-.674.758-1.614,0-1.886Zm-1.454-4.117v-1.2A.871.871,0,0,0,4342.061,609.441Z" transform="translate(-4315.237 -574.504)" fill="#283285"/>
  <path id="Path_2052" data-name="Path 2052" d="M4184.595,590.435q2.845,0,5.69,0a1.865,1.865,0,0,1,.489.051.565.565,0,0,1,.476.664,1.488,1.488,0,0,1-.486.621c-.081.074-.258.057-.392.057q-5.758,0-11.515,0a1.743,1.743,0,0,1-.358-.031.678.678,0,0,1,0-1.335,2.141,2.141,0,0,1,.449-.028Q4181.773,590.434,4184.595,590.435Z" transform="translate(-4172.559 -561.161)" fill="#283285"/>
  <path id="Path_2053" data-name="Path 2053" d="M4267.11,397.339a.641.641,0,0,1-.49.681c-.344.087-.712-.009-.78-.352-.157-.8-.681-.82-1.3-.752a.988.988,0,0,1-.27,0c-.475-.08-.725.1-.867.581-.163.547-.744.752-1.079.4a.9.9,0,0,1-.211-.746c.548-1.558,1.128-3.105,1.752-4.634a.957.957,0,0,1,.712-.492.945.945,0,0,1,.723.473c.623,1.529,1.186,3.083,1.766,4.63A1.183,1.183,0,0,1,4267.11,397.339Zm-2.118-1.839c-.141-.372-.256-.677-.4-1.069l-.4,1.069Z" transform="translate(-4246.553 -386.706)" fill="#283285"/>
  <path id="Path_2054" data-name="Path 2054" d="M4329.64,395.795c-.394.56-.746,1.065-1.1,1.566-.315.44-.729.55-1.072.3-.327-.242-.351-.651-.052-1.082.395-.57.79-1.14,1.2-1.7a.4.4,0,0,0,0-.556c-.344-.457-.668-.93-.992-1.4-.3-.434-.253-.824.106-1.067s.709-.144,1.006.264.572.812.9,1.278a14.7,14.7,0,0,1,.941-1.287,1.035,1.035,0,0,1,.71-.344.658.658,0,0,1,.424,1.073q-.48.739-1.015,1.441a.439.439,0,0,0-.01.629c.392.515.752,1.055,1.123,1.586s.366.913-.023,1.18c-.368.253-.746.115-1.115-.409C4330.342,396.8,4330.015,396.329,4329.64,395.795Z" transform="translate(-4303.798 -386.445)" fill="#283285"/>
  <path id="Path_2055" data-name="Path 2055" d="M4202.945,393.136c-.258-.016-.468-.015-.673-.046a.643.643,0,0,1-.6-.632.6.6,0,0,1,.561-.7c.944-.041,1.893-.037,2.837,0a.6.6,0,0,1,.548.666.649.649,0,0,1-.612.665c-.2.03-.413.029-.672.045v1.368c0,.829.009,1.658,0,2.486-.009.528-.282.811-.718.8-.408-.014-.663-.3-.667-.8-.008-1.115,0-2.23,0-3.345Z" transform="translate(-4193.426 -386.449)" fill="#283285"/>
</svg>
