<svg id="Group_1336" data-name="Group 1336" xmlns="http://www.w3.org/2000/svg" width="45.802" height="46.039" viewBox="0 0 45.802 46.039">
  <path id="Path_2040" data-name="Path 2040" d="M3117.592,500.4l-.493-.189a2.955,2.955,0,0,1-1.91-2.74q-.02-8.246,0-16.492a2.962,2.962,0,0,1,3.011-2.935c.657-.018,1.316-.012,1.973,0,.26,0,.348-.082.393-.349a10.642,10.642,0,0,1,20.98.007c.048.262.153.345.411.343a22.128,22.128,0,0,1,2.241.033,2.929,2.929,0,0,1,2.733,3.048q0,7.437,0,14.874a13.758,13.758,0,0,1-.024,1.751,2.926,2.926,0,0,1-2.108,2.539c-.1.033-.19.073-.285.109Zm16.262-12.832c1.749-1.239,3.579-2.533,5.4-3.837a.976.976,0,0,0,.272-.395,9.293,9.293,0,1,0-17.53-1.795,3.444,3.444,0,0,0,1.659,2.764,4.416,4.416,0,0,1,.589.409l4.032,2.855,2.239-1.279-.187-1c-.7-.3-1.334-.55-1.942-.846a.7.7,0,0,1-.361-.466.826.826,0,0,1,.227-.656,1.04,1.04,0,0,1,.772-.051,12.452,12.452,0,0,1,1.348.6c0-1.237-.02-2.313.011-3.389a.682.682,0,0,0-.451-.751,2.641,2.641,0,0,1-1.561-1.518,2.716,2.716,0,0,1,1.661-3.385c.26-.091.374-.2.343-.469a1.218,1.218,0,0,1,.011-.314.639.639,0,0,1,.677-.634.646.646,0,0,1,.678.638,3.038,3.038,0,0,1,0,.5c.568.286,1.064.492,1.513.775a.667.667,0,0,1,.2,1.009.715.715,0,0,1-1,.077c-.2-.126-.424-.223-.707-.369,0,.906.023,1.7-.01,2.49a.588.588,0,0,0,.479.7,2.715,2.715,0,0,1,1.967,2.076,3.214,3.214,0,0,1-2.077,3.687.58.58,0,0,0-.344.309,8.328,8.328,0,0,0-.148.985Zm10.476,11.44c-.136-.15-.205-.242-.289-.317q-5.837-5.22-11.68-10.435a1.892,1.892,0,0,0-2.641.035q-5.774,5.155-11.544,10.317c-.115.1-.224.212-.421.4Zm1.2-18.047-10.75,7.621,10.605,9.481C3145.618,497.593,3145.736,482.766,3145.533,480.965Zm-18.186,7.621-10.781-7.642v.577q0,1.8,0,3.6,0,6,0,12c0,.308.053.617.092,1.032Zm-10.169-8.879,3.515,2.488c-.12-.944-.233-1.836-.353-2.78C3119.324,479.536,3118.278,479.215,3117.178,479.708Zm24.258,2.49,3.506-2.489c-1.1-.5-2.152-.171-3.154-.289C3141.668,480.371,3141.555,481.254,3141.436,482.2Zm-9.659,1.414a1.74,1.74,0,0,0,1.1-1.819,1.312,1.312,0,0,0-1.1-1.213Zm-1.426-7.414a1.321,1.321,0,0,0-.733,1.37.924.924,0,0,0,.733.8Z" transform="translate(-3101.151 -454.366)" fill="#283285"/>
  <path id="Path_2041" data-name="Path 2041" d="M3025.128,348a4.737,4.737,0,0,1,2.027,1.406q3.061,3.1,6.146,6.173a2.844,2.844,0,0,1,.864,2.052c.017,1.228.009,2.457,0,3.685,0,.538-.283.877-.7.872s-.681-.34-.684-.885c-.005-1.124,0-2.247,0-3.371v-.544h-.531c-1.615,0-3.23,0-4.845,0a2.411,2.411,0,0,1-2.635-2.655q0-2.427,0-4.854v-.533h-23.454a1.529,1.529,0,0,0-1.761,1.754q0,19.91,0,39.82c0,1.226.552,1.769,1.792,1.77q4.6,0,9.2,0c.376,0,.735.01.905.415s-.07.676-.329.936h-10.681c-1.739-.583-2.265-1.842-2.259-3.605.04-11.609.021-23.219.021-34.829,0-1.588-.005-3.176,0-4.764a2.82,2.82,0,0,1,1.922-2.7c.107-.038.21-.092.315-.138Zm1.027,2.5c0,1.509-.026,3.071.014,4.632a.928.928,0,0,0,1.044.885c1.209.007,2.418,0,3.628,0h.828Z" transform="translate(-2998.186 -348)" fill="#283285"/>
  <path id="Path_2042" data-name="Path 2042" d="M3049.664,403.035h8.029a3.624,3.624,0,0,1,.492.02.671.671,0,0,1,.07,1.321,1.782,1.782,0,0,1-.444.039q-8.164,0-16.327,0c-.177,0-.408.021-.517-.076-.19-.171-.426-.432-.417-.645s.268-.449.472-.6c.12-.091.346-.053.524-.053Q3045.6,403.033,3049.664,403.035Z" transform="translate(-3035.47 -396.432)" fill="#283285"/>
  <path id="Path_2043" data-name="Path 2043" d="M3049.389,443.11h-8.029a3.512,3.512,0,0,1-.493-.014.617.617,0,0,1-.579-.631.641.641,0,0,1,.563-.7,1.606,1.606,0,0,1,.358-.011h16.416a1.8,1.8,0,0,1,.358.011.642.642,0,0,1,.562.658.624.624,0,0,1-.59.671,4.108,4.108,0,0,1-.493.013Z" transform="translate(-3035.24 -430.511)" fill="#283285"/>
  <path id="Path_2044" data-name="Path 2044" d="M3045.082,481.708c-1.345,0-2.69,0-4.035,0a.761.761,0,0,1-.825-.481.651.651,0,0,1,.447-.849,2.078,2.078,0,0,1,.532-.053q3.9,0,7.8,0c.075,0,.15,0,.224,0,.5.035.766.28.76.7s-.289.67-.781.677c-.673.01-1.345,0-2.018,0Z" transform="translate(-3035.148 -464.461)" fill="#283285"/>
</svg>
