<svg xmlns="http://www.w3.org/2000/svg" width="87" height="86.559" viewBox="0 0 87 86.559">
  <g id="Group_1361" data-name="Group 1361" transform="translate(0)">
    <path id="Path_2063" data-name="Path 2063" d="M-955.583,583.575a18.9,18.9,0,0,1-1.984-.667,7.785,7.785,0,0,1-4.954-7.37c-.073-9.138-.053-18.277-.012-27.415a8.089,8.089,0,0,1,8.015-8.018q4.2-.062,8.4,0a8.079,8.079,0,0,1,8.011,8.02q.065,13.707,0,27.415a8.085,8.085,0,0,1-6.578,7.878,2.034,2.034,0,0,0-.372.157Z" transform="translate(993.807 -497.016)" fill="#cbcbcb"/>
    <path id="Path_2064" data-name="Path 2064" d="M-1100.243,594.964c.167-.531.315-1.07.505-1.593a8.094,8.094,0,0,1,7.446-5.357c2.857-.043,5.715-.051,8.572,0a8.073,8.073,0,0,1,7.92,7.931q.088,8.357,0,16.717a8.1,8.1,0,0,1-6.49,7.78,3.3,3.3,0,0,0-.456.167h-10.533c-.288-.094-.573-.2-.864-.281a8.082,8.082,0,0,1-5.69-5.328c-.161-.443-.275-.9-.411-1.355Z" transform="translate(1100.243 -534.052)" fill="#cbcbcb"/>
    <path id="Path_2065" data-name="Path 2065" d="M-817.845,620.614a18.845,18.845,0,0,1-1.984-.667,7.824,7.824,0,0,1-4.955-7.369c-.088-5.515-.059-11.032-.012-16.548a8.1,8.1,0,0,1,8.017-8.016q4.2-.062,8.4,0a8.091,8.091,0,0,1,8.013,8.018q.073,8.274,0,16.549a8.1,8.1,0,0,1-6.579,7.876,2.036,2.036,0,0,0-.372.157Z" transform="translate(887.328 -534.055)" fill="#cbcbcb"/>
    <path id="Path_2066" data-name="Path 2066" d="M-1100.243,425.3a3.118,3.118,0,0,1,3.473-2.084c1.126.081,2.263.029,3.395.011a2.737,2.737,0,0,0,2.844-2.084c.417-1.23.8-2.472,1.212-3.7a2.8,2.8,0,0,1,2.652-2.124,2.786,2.786,0,0,1,2.671,2.094c.424,1.258.811,2.528,1.239,3.784a2.73,2.73,0,0,0,2.8,2.032c1.358.022,2.717-.007,4.075.011a2.664,2.664,0,0,1,2.667,1.834,2.675,2.675,0,0,1-1.069,3.131c-1.063.8-2.153,1.56-3.221,2.351a2.735,2.735,0,0,0-1.114,3.418c.38,1.213.789,2.416,1.173,3.628a2.658,2.658,0,0,1-.893,3.255,2.694,2.694,0,0,1-3.448-.128c-1.012-.724-2.008-1.47-3.022-2.192a2.715,2.715,0,0,0-3.657-.01c-1.058.757-2.1,1.533-3.167,2.281a2.621,2.621,0,0,1-3.3.061,2.658,2.658,0,0,1-.954-3.168c.377-1.213.783-2.418,1.169-3.629a2.8,2.8,0,0,0-1.19-3.611c-.774-.57-1.6-1.075-2.324-1.706s-1.342-1.39-2.007-2.092Z" transform="translate(1100.243 -400.562)" fill="#cbcbcb"/>
    <path id="Path_2067" data-name="Path 2067" d="M-979.23,362.144c.988-3.043,1.964-6.048,2.941-9.052.1-.3.191-.592.3-.882a2.719,2.719,0,0,1,2.544-1.9,2.675,2.675,0,0,1,2.618,1.913c.864,2.57,1.686,5.154,2.528,7.731.235.72.477,1.438.728,2.194h9.287c.34,0,.68,0,1.019,0a2.724,2.724,0,0,1,2.735,1.875,2.671,2.671,0,0,1-1.089,3.128c-1.725,1.283-3.473,2.534-5.212,3.8-.87.632-1.729,1.28-2.617,1.883a.774.774,0,0,0-.324,1.059q1.524,4.583,2.978,9.189a2.692,2.692,0,0,1-2.052,3.625,2.948,2.948,0,0,1-2.371-.676c-2.513-1.835-5.044-3.645-7.539-5.5a.914.914,0,0,0-1.306.017c-2.455,1.818-4.936,3.6-7.41,5.393-1.362.987-2.5,1.081-3.587.3s-1.365-1.952-.837-3.58c.942-2.9,1.865-5.809,2.84-8.7a.871.871,0,0,0-.377-1.189c-2.512-1.788-5-3.612-7.494-5.422-1.3-.946-1.759-2.015-1.375-3.251a2.782,2.782,0,0,1,3.019-1.949C-985.947,362.142-982.61,362.144-979.23,362.144Z" transform="translate(1016.896 -350.305)" fill="#cbcbcb"/>
    <path id="Path_2068" data-name="Path 2068" d="M-831.846,423.227c.707,0,1.415.017,2.122-.005A2.721,2.721,0,0,0-827,421.207c.42-1.229.8-2.471,1.209-3.7a2.825,2.825,0,0,1,2.688-2.191,2.819,2.819,0,0,1,2.691,2.186c.4,1.206.777,2.42,1.183,3.623a2.765,2.765,0,0,0,2.917,2.1c1.3.013,2.6-.007,3.9.007a2.683,2.683,0,0,1,2.744,1.847,2.677,2.677,0,0,1-1.081,3.127c-.994.748-2.009,1.468-3.016,2.2-1.509,1.1-1.8,2-1.218,3.811.371,1.156.752,2.31,1.113,3.469a2.669,2.669,0,0,1-.933,3.176,2.621,2.621,0,0,1-3.3-.047c-1.064-.749-2.1-1.531-3.163-2.286a2.715,2.715,0,0,0-3.657-.005c-1.058.757-2.1,1.534-3.166,2.281a2.619,2.619,0,0,1-3.3.054,2.661,2.661,0,0,1-.948-3.169c.369-1.187.761-2.366,1.14-3.55a2.825,2.825,0,0,0-1.237-3.737c-.982-.717-1.974-1.421-2.951-2.145a2.7,2.7,0,0,1-1.154-3.175,2.678,2.678,0,0,1,2.741-1.851C-833.148,423.219-832.5,423.228-831.846,423.227Z" transform="translate(896.49 -400.562)" fill="#cbcbcb"/>
  </g>
</svg>
