<svg id="Group_460" data-name="Group 460" xmlns="http://www.w3.org/2000/svg" xmlns:xlink="http://www.w3.org/1999/xlink" width="130" height="22.941" viewBox="0 0 130 22.941">
  <defs>
    <clipPath id="clip-path">
      <rect id="Rectangle_40" data-name="Rectangle 40" width="22.941" height="22.941" transform="translate(0 0)" fill="#fff"/>
    </clipPath>
  </defs>
  <g id="Group_49" data-name="Group 49" transform="translate(0 0)" clip-path="url(#clip-path)">
    <path id="Path_1894" data-name="Path 1894" d="M931.381,232.946l5.907,3.566-1.568-6.72,5.219-4.522-6.873-.583-2.686-6.337-2.686,6.337-6.873.583,5.219,4.522-1.568,6.72Z" transform="translate(-919.91 -216.439)" fill="#f8a401"/>
  </g>
  <g id="Group_50" data-name="Group 50" transform="translate(26.764 0)" clip-path="url(#clip-path)">
    <path id="Path_1895" data-name="Path 1895" d="M968.812,232.946l5.907,3.566-1.567-6.72,5.219-4.522-6.873-.583-2.686-6.337-2.686,6.337-6.873.583,5.219,4.522-1.567,6.72Z" transform="translate(-957.342 -216.439)" fill="#f8a401"/>
  </g>
  <g id="Group_51" data-name="Group 51" transform="translate(53.528 0)" clip-path="url(#clip-path)">
    <path id="Path_1896" data-name="Path 1896" d="M1006.241,232.946l5.913,3.566-1.573-6.72,5.22-4.522-6.871-.583-2.688-6.337-2.681,6.337-6.874.583,5.215,4.522-1.566,6.72Z" transform="translate(-994.774 -216.439)" fill="#f8a401"/>
  </g>
  <g id="Group_52" data-name="Group 52" transform="translate(80.297 0)" clip-path="url(#clip-path)">
    <path id="Path_1897" data-name="Path 1897" d="M1043.68,232.946l5.906,3.566-1.566-6.72,5.219-4.522-6.878-.583-2.681-6.337-2.688,6.337-6.871.583,5.22,4.522-1.566,6.72Z" transform="translate(-1032.211 -216.439)" fill="#f8a401"/>
  </g>
  <g id="Group_53" data-name="Group 53" transform="translate(107.059 0)" clip-path="url(#clip-path)">
    <path id="Path_1898" data-name="Path 1898" d="M1090.669,225.271l-6.871-.592-2.688-6.328-2.688,6.337-6.871.583,5.219,4.522-1.566,6.72,5.906-3.566,5.906,3.566-1.559-6.72Zm-9.56,5.888-3.6,2.17.958-4.091-3.175-2.753,4.19-.363,1.623-3.852,1.637,3.862,4.183.363-3.175,2.753.958,4.091Z" transform="translate(-1069.641 -216.439)" fill="#f8a401"/>
  </g>
</svg>
